<svg width="36" height="36" viewBox="0 0 36 36" fill="none" xmlns="http://www.w3.org/2000/svg">
<path d="M1.73938e-06 17.9999C5.65298e-06 27.2513 18 17.9999 18 17.9999C18 17.9999 -2.17422e-06 8.74853 1.73938e-06 17.9999Z" fill="#272847"/>
<path d="M36 17.9999C36 27.2513 18 17.9999 18 17.9999C18 17.9999 36 8.74853 36 17.9999Z" fill="#272847"/>
<path d="M8.99998 33.944C16.8332 38.5697 18 17.9999 18 17.9999C18 17.9999 1.16678 29.3184 8.99998 33.944Z" fill="#272847"/>
<path d="M27 2.05586C34.8332 6.68155 18 18 18 18C18 18 19.1668 -2.56983 27 2.05586Z" fill="#272847"/>
<path d="M27 33.944C19.1668 38.5697 18 17.9999 18 17.9999C18 17.9999 34.8332 29.3184 27 33.944Z" fill="#272847"/>
<path d="M9.00002 2.05586C1.16682 6.68155 18 18 18 18C18 18 16.8332 -2.56983 9.00002 2.05586Z" fill="#272847"/>
</svg>
