<svg width="36" height="39" viewBox="0 0 36 39" fill="none" xmlns="http://www.w3.org/2000/svg">
<path fill-rule="evenodd" clip-rule="evenodd" d="M8.9059 13.8972C8.21486 12.6024 7.82576 11.1399 7.82576 9.59165C7.82576 4.29433 12.3809 0 18 0V8.63566C18.7676 7.38093 19.8331 6.30446 21.1694 5.5241C25.73 2.8607 31.7173 4.65511 34.5425 9.53201L27.0662 13.8981C28.5365 13.9364 30.0022 14.3247 31.3472 15.0986C35.9247 17.7325 37.3706 23.8359 34.5768 28.7309L27.0941 24.4254C27.7851 25.7201 28.1742 27.1827 28.1742 28.7309C28.1742 34.0283 23.6191 38.3226 18 38.3226V29.6869C17.2324 30.9417 16.1669 32.0181 14.8306 32.7985C10.27 35.4619 4.28271 33.6675 1.45754 28.7906L8.93376 24.4244C7.46354 24.3862 5.99784 23.9979 4.65285 23.224C0.0753012 20.5901 -1.37064 14.4867 1.42324 9.59166L8.9059 13.8972ZM18.0054 19.1393C18.0036 19.1362 18.0018 19.1331 18 19.13L18 19.1393L18.0054 19.1393ZM18 19.1833V19.1926L17.9946 19.1833L18 19.1833Z" fill="#272847"/>
</svg>
