<svg width="104" height="46" viewBox="0 0 104 46" fill="none" xmlns="http://www.w3.org/2000/svg">
<g style="mix-blend-mode:luminosity" clip-path="url(#clip0_65_4928)">
<path fill-rule="evenodd" clip-rule="evenodd" d="M59.6238 14.698V12.3541C59.6238 11.9994 59.8932 11.7615 60.2165 11.7615H70.7098C71.0466 11.7615 71.316 12.0039 71.316 12.3541V14.3612C71.3115 14.698 71.0286 15.138 70.5257 15.834L65.0882 23.5973C67.1088 23.5479 69.2415 23.8487 71.0735 24.8815C71.4866 25.1149 71.5988 25.4562 71.6303 25.7929V28.2939C71.6303 28.6352 71.2531 29.0348 70.858 28.8282C67.6296 27.1355 63.3416 26.9514 59.772 28.8462C59.4083 29.0438 59.0266 28.6486 59.0266 28.3074V25.9321C59.0266 25.5505 59.0311 24.8994 59.4128 24.3202L65.7123 15.2862H60.23C59.8932 15.2862 59.6238 15.0482 59.6238 14.698Z" fill="black"/>
<path fill-rule="evenodd" clip-rule="evenodd" d="M21.3459 29.3222H18.1534C17.8481 29.2997 17.6056 29.0707 17.5832 28.7789V12.3946C17.5832 12.0668 17.8571 11.8064 18.1983 11.8064H21.1752C21.4851 11.8199 21.732 12.0578 21.7545 12.3542V14.4959H21.8128C22.5896 12.426 24.0489 11.4607 26.0155 11.4607C28.0136 11.4607 29.2619 12.426 30.1599 14.4959C30.9322 12.426 32.6878 11.4607 34.5691 11.4607C35.9072 11.4607 37.371 12.0129 38.2645 13.2522C39.2747 14.6306 39.0682 16.6332 39.0682 18.3888L39.0637 28.7295C39.0637 29.0573 38.7898 29.3222 38.4486 29.3222H35.2606C34.9418 29.2997 34.6859 29.0438 34.6859 28.7295V20.0457C34.6859 19.3542 34.7487 17.63 34.5961 16.9745C34.3581 15.8744 33.6442 15.5646 32.7192 15.5646C31.9469 15.5646 31.1387 16.0809 30.811 16.9071C30.4832 17.7333 30.5146 19.1162 30.5146 20.0457V28.7295C30.5146 29.0573 30.2407 29.3222 29.8995 29.3222H26.7115C26.3882 29.2997 26.1368 29.0438 26.1368 28.7295L26.1323 20.0457C26.1323 18.2182 26.4331 15.5287 24.1656 15.5287C21.8712 15.5287 21.961 18.1509 21.961 20.0457V28.7295C21.961 29.0573 21.6871 29.3222 21.3459 29.3222Z" fill="black"/>
<path fill-rule="evenodd" clip-rule="evenodd" d="M80.3499 11.4607C85.0869 11.4607 87.6507 15.5287 87.6507 20.7012C87.6507 25.6987 84.8175 29.6634 80.3499 29.6634C75.6982 29.6634 73.1658 25.5954 73.1658 20.5261C73.1658 15.4254 75.7296 11.4607 80.3499 11.4607ZM80.3768 14.8058C78.024 14.8058 77.8758 18.0117 77.8758 20.0098C77.8758 22.0123 77.8444 26.2869 80.3499 26.2869C82.8239 26.2869 82.9407 22.8385 82.9407 20.7371C82.9407 19.3542 82.8823 17.7019 82.4647 16.3908C82.1055 15.2503 81.3916 14.8058 80.3768 14.8058Z" fill="black"/>
<path fill-rule="evenodd" clip-rule="evenodd" d="M93.7933 29.3222H90.6143C90.2955 29.2997 90.0396 29.0438 90.0396 28.7295L90.0351 12.3407C90.062 12.0399 90.327 11.8064 90.6502 11.8064H93.6092C93.8876 11.8199 94.1166 12.0084 94.1794 12.2644V14.7698H94.2378C95.1313 12.5293 96.3841 11.4607 98.5887 11.4607C100.021 11.4607 101.417 11.977 102.315 13.3914C103.151 14.7025 103.151 16.9071 103.151 18.4921V28.8058C103.115 29.0932 102.85 29.3222 102.535 29.3222H99.334C99.0422 29.2997 98.7997 29.0842 98.7683 28.8058V19.9065C98.7683 18.1149 98.9748 15.4927 96.7702 15.4927C95.9934 15.4927 95.2795 16.0136 94.9248 16.8038C94.4758 17.8051 94.4174 18.8019 94.4174 19.9065V28.7295C94.4129 29.0573 94.1345 29.3222 93.7933 29.3222Z" fill="black"/>
<path fill-rule="evenodd" clip-rule="evenodd" d="M51.2588 21.4959C51.2588 22.7397 51.2902 23.7769 50.6616 24.8815C50.1543 25.7795 49.346 26.3318 48.4525 26.3318C47.2267 26.3318 46.5083 25.3978 46.5083 24.0194C46.5083 21.2984 48.9464 20.8045 51.2588 20.8045V21.4959ZM54.4782 29.2772C54.2672 29.4658 53.9618 29.4793 53.7239 29.3536C52.6642 28.4735 52.4711 28.0649 51.8919 27.2253C50.1408 29.0123 48.897 29.5467 46.6295 29.5467C43.94 29.5467 41.8521 27.8898 41.8521 24.5717C41.8521 21.9809 43.253 20.2163 45.2556 19.3542C46.9888 18.5909 49.4089 18.4562 51.2588 18.2451V17.832C51.2588 17.0732 51.3172 16.1752 50.8682 15.5197C50.482 14.9315 49.7367 14.689 49.0766 14.689C47.8598 14.689 46.7777 15.3131 46.5128 16.6062C46.4589 16.8936 46.2479 17.1765 45.956 17.19L42.8624 16.8577C42.6019 16.7993 42.3101 16.5883 42.3864 16.1887C43.0959 12.435 46.4904 11.3035 49.5256 11.3035C51.0792 11.3035 53.1087 11.7166 54.3345 12.893C55.8881 14.3432 55.7399 16.2785 55.7399 18.3843V23.3593C55.7399 24.8545 56.3595 25.5101 56.9432 26.3183C57.1453 26.6057 57.1902 26.9514 56.9298 27.1669C56.2787 27.7102 55.1203 28.7205 54.4827 29.2862L54.4782 29.2772Z" fill="black"/>
<path fill-rule="evenodd" clip-rule="evenodd" d="M9.40671 21.4959C9.40671 22.7397 9.43814 23.7769 8.80953 24.8815C8.30215 25.7795 7.49842 26.3317 6.60041 26.3317C5.37462 26.3317 4.6607 25.3978 4.6607 24.0194C4.6607 21.2984 7.09881 20.8045 9.40671 20.8045V21.4959ZM12.6261 29.2772C12.4151 29.4658 12.1097 29.4793 11.8718 29.3536C10.8121 28.4735 10.6235 28.0649 10.0398 27.2253C8.28868 29.0123 7.04942 29.5466 4.77744 29.5466C2.09237 29.5466 0 27.8898 0 24.5716C0 21.9809 1.40539 20.2163 3.40348 19.3542C5.13664 18.5909 7.55679 18.4562 9.40671 18.2451V17.832C9.40671 17.0732 9.46508 16.1752 9.02056 15.5196C8.62992 14.9314 7.88457 14.689 7.22902 14.689C6.01221 14.689 4.92561 15.3131 4.6607 16.6062C4.60682 16.8936 4.39578 17.1765 4.10842 17.19L1.01027 16.8577C0.749842 16.7993 0.462477 16.5883 0.534318 16.1887C1.24824 12.435 4.63825 11.3035 7.67354 11.3035C9.2271 11.3035 11.2566 11.7166 12.4824 12.893C14.036 14.3432 13.8878 16.2785 13.8878 18.3843V23.3593C13.8878 24.8545 14.5074 25.5101 15.0911 26.3183C15.2977 26.6056 15.3426 26.9514 15.0822 27.1669C14.4311 27.7102 13.2727 28.7205 12.6351 29.2862L12.6261 29.2772Z" fill="black"/>
</g>
<defs>
<clipPath id="clip0_65_4928">
<rect width="103.616" height="45.2143" fill="white"/>
</clipPath>
</defs>
</svg>
