<svg width="156" height="46" viewBox="0 0 156 46" fill="none" xmlns="http://www.w3.org/2000/svg">
<g style="mix-blend-mode:luminosity" clip-path="url(#clip0_65_4929)">
<path d="M60.7148 13.9889C60.7148 13.365 60.9626 12.7665 61.4039 12.3253C61.8451 11.8841 62.4436 11.6362 63.0675 11.6362C63.6915 11.6362 64.2899 11.8841 64.7311 12.3253C65.1723 12.7665 65.4202 13.365 65.4202 13.9889C65.3975 14.5977 65.1397 15.174 64.7009 15.5967C64.2622 16.0193 63.6767 16.2555 63.0675 16.2555C62.4583 16.2555 61.8728 16.0193 61.4341 15.5967C60.9953 15.174 60.7375 14.5977 60.7148 13.9889Z" fill="#273B7D"/>
<path d="M22.1033 28.6589C20.0783 28.6589 18.6692 27.05 18.6692 24.7498C18.6692 22.4511 20.0782 20.8439 22.1049 20.8439C24.1414 20.8439 25.5651 22.4511 25.5651 24.7498C25.5651 27.0861 24.1726 28.6589 22.1033 28.6589ZM22.1033 17.4082C17.8173 17.4082 14.706 20.4966 14.706 24.7498C14.706 29.0046 17.8189 32.0913 22.1033 32.0913C26.4073 32.0913 29.53 29.0046 29.53 24.7514C29.53 20.4966 26.4073 17.4082 22.1049 17.4082H22.1033ZM56.1584 25.1184C56.0093 24.8299 55.8207 24.5636 55.5981 24.3271L55.467 24.1911L55.6047 24.06C55.8013 23.8519 56.0028 23.6062 56.1961 23.3211L59.9808 17.6982H55.3868L52.5442 22.0972C52.3836 22.3332 52.0593 22.4511 51.5727 22.4511H50.9255V14.1347C50.9255 12.4718 49.8885 12.2457 48.7694 12.2457H46.8525L46.8574 31.8751H50.9271V25.9867H51.3089C51.7726 25.9867 52.0871 26.0408 52.2329 26.2931L54.4775 30.5299C55.105 31.6801 55.7292 31.8751 56.9055 31.8751H60.0234L57.7002 28.0347L56.1601 25.1184H56.1584ZM75.914 17.3755C73.8431 17.3755 72.5225 18.2962 71.782 19.0744L71.5363 19.3235L71.4478 18.9843C71.2315 18.1504 70.4975 17.6933 69.3949 17.6933H67.5713L67.5828 31.8701H71.6247V25.3363C71.6247 24.6973 71.7066 24.1436 71.877 23.6373C72.3259 22.1054 73.5809 21.1535 75.1488 21.1535C76.4104 21.1535 76.9036 21.8204 76.9036 23.5407V29.7157C76.9036 31.1837 77.5834 31.8701 79.0531 31.8701H80.9765L80.97 22.8525C80.97 19.271 79.2219 17.3771 75.914 17.3771V17.3755ZM63.1166 17.6982H61.2013L61.2144 28.6606V31.8751H63.2575L63.3296 31.8783L64.2832 31.8751H65.2302V31.8701H65.2367L65.2449 19.8527C65.2449 18.4027 64.5519 17.6998 63.1183 17.6998L63.1166 17.6982ZM37.9774 28.6589C35.9524 28.6589 34.5418 27.05 34.5418 24.7498C34.5418 22.4511 35.9525 20.8439 37.9791 20.8439C40.0107 20.8439 41.4394 22.4511 41.4394 24.7498C41.4394 27.0861 40.0468 28.6589 37.9791 28.6589H37.9774ZM37.9774 17.4082C33.6882 17.4082 30.5752 20.4966 30.5752 24.7498C30.5752 29.0046 33.6882 32.0913 37.9791 32.0913C42.2766 32.0913 45.4058 29.0046 45.4058 24.7514C45.4058 20.4966 42.2766 17.4082 37.9791 17.4082" fill="#273B7D"/>
<path d="M89.4911 28.0346C87.281 28.0346 86.4946 26.1079 86.4946 24.3008C86.4946 23.5045 86.696 20.911 89.2797 20.911C90.5626 20.911 92.2714 21.278 92.2714 24.4335C92.2714 27.4104 90.7592 28.0346 89.4911 28.0346ZM94.3702 17.6605C93.6034 17.6605 93.0136 17.9668 92.7171 18.5255L92.6057 18.7418L92.4189 18.5779C91.7668 18.0143 90.597 17.3442 88.6982 17.3442C84.9184 17.3442 82.3741 20.1836 82.3741 24.4056C82.3741 28.6261 85.0069 31.5752 88.7736 31.5752C90.0597 31.5752 91.077 31.2737 91.8831 30.6642L92.1944 30.4299V30.8232C92.1944 32.7171 90.9706 33.7624 88.7506 33.7624C87.6709 33.7624 86.6895 33.5003 86.0309 33.2611C85.1757 33.0022 84.671 33.2168 84.3253 34.077L84.0042 34.8699L83.5503 36.0299L83.8305 36.179C85.2526 36.9326 87.1024 37.3832 88.7736 37.3832C92.2141 37.3832 96.2346 35.6219 96.2346 30.6642L96.2494 17.6605H94.3702Z" fill="#273B7D"/>
<path d="M7.05319 28.4967L3.76334 28.4934V24.5613C3.76334 23.7192 4.08938 23.2834 4.80862 23.1818H7.05319C8.65388 23.1818 9.68931 24.191 9.69095 25.8245C9.68931 27.5022 8.68009 28.495 7.05319 28.495V28.4967ZM3.76334 16.8511C3.76334 15.9451 4.14673 15.5142 4.98722 15.4585H6.67149C8.1149 15.4585 8.97996 16.3219 8.97996 17.7686C8.97996 18.8696 8.38684 20.1557 6.72389 20.1557H3.76334V16.8511ZM11.254 21.8121L10.6592 21.4779L11.1786 21.0339C11.7832 20.5145 12.7941 19.3463 12.7941 17.3311C12.7941 14.2444 10.4021 12.2522 6.69769 12.2522H1.98897C1.45914 12.2715 0.957082 12.4939 0.586791 12.8734C0.216499 13.2528 0.00638042 13.7602 0 14.2903V31.8045H6.78119C10.8984 31.8045 13.5559 29.5632 13.5559 26.0915C13.5559 24.2221 12.6974 22.6247 11.254 21.8121Z" fill="#273B7D"/>
<path d="M97.8354 29.6795C97.8354 28.3737 98.8873 27.3186 100.183 27.3186C100.809 27.3186 101.409 27.5672 101.851 28.0096C102.294 28.4521 102.542 29.0521 102.542 29.6779C102.542 30.3036 102.294 30.9037 101.851 31.3461C101.409 31.7885 100.809 32.0371 100.183 32.0371C98.8889 32.0371 97.8354 30.9804 97.8354 29.6779" fill="#499FDD"/>
<path d="M124.606 28.6587C122.581 28.6587 121.169 27.0498 121.169 24.7495C121.169 22.4509 122.581 20.8436 124.606 20.8436C126.641 20.8436 128.068 22.4509 128.068 24.7495C128.068 27.0858 126.676 28.6587 124.606 28.6587ZM124.606 17.408C120.317 17.408 117.206 20.4963 117.206 24.7495C117.206 29.0044 120.317 32.0911 124.606 32.0911C128.906 32.0911 132.033 29.0044 132.033 24.7511C132.033 20.4963 128.904 17.408 124.606 17.408Z" fill="#499FDD"/>
<path d="M150.086 17.4227C149.252 17.4258 148.429 17.6163 147.678 17.9801C146.927 18.344 146.268 18.8718 145.748 19.5248L145.456 19.895L145.227 19.4805C144.477 18.1158 143.189 17.4227 141.398 17.4227C139.519 17.4227 138.259 18.4713 137.674 19.0939L137.291 19.5084L137.143 18.9628C136.93 18.1764 136.231 17.7455 135.172 17.7455H133.473L133.457 31.8683H137.315V25.6343C137.315 25.0871 137.384 24.548 137.52 23.9828C137.889 22.4755 138.901 20.8551 140.604 21.0173C141.652 21.1189 142.167 21.9299 142.167 23.4962V31.8683H146.053V25.6343C146.053 24.9511 146.117 24.4399 146.271 23.9287C146.582 22.4902 147.64 21.0157 149.282 21.0157C150.472 21.0157 150.911 21.6874 150.911 23.4962V29.8039C150.911 31.2293 151.546 31.8683 152.973 31.8683H154.789L154.792 22.8523C154.792 19.2495 153.206 17.4227 150.086 17.4227ZM114.97 26.9646C114.958 26.9794 113.298 28.7292 111.111 28.7292C109.119 28.7292 107.107 27.5069 107.107 24.779C107.107 22.4231 108.667 20.7765 110.902 20.7765C111.626 20.7765 112.451 21.0354 112.581 21.4728L112.599 21.5465C112.681 21.8477 112.861 22.1132 113.11 22.3019C113.359 22.4906 113.663 22.5919 113.975 22.5902L116.089 22.5934V20.7454C116.089 18.3075 112.987 17.4227 110.902 17.4227C106.439 17.4227 103.201 20.5291 103.201 24.8085C103.201 29.0847 106.403 32.1878 110.82 32.1878C114.65 32.1878 116.734 29.6696 116.754 29.645L116.865 29.5074L115.191 26.7303L114.97 26.9646Z" fill="#499FDD"/>
</g>
<defs>
<clipPath id="clip0_65_4929">
<rect width="155.424" height="45.2143" fill="white"/>
</clipPath>
</defs>
</svg>
