<svg width="10" height="6" viewBox="0 0 10 6" fill="none" xmlns="http://www.w3.org/2000/svg">
<path d="M1.00391 0.5C1.10434 0.5 1.20188 0.529967 1.28418 0.584961L1.36035 0.647461L4.65039 3.94727L5.00391 4.30176L5.35742 3.94727L8.625 0.678711C8.71979 0.600018 8.84058 0.559691 8.96387 0.564453C9.0896 0.56932 9.20883 0.621035 9.29785 0.709961C9.38681 0.798916 9.43938 0.918246 9.44434 1.04395C9.4491 1.16717 9.40674 1.28707 9.32812 1.38184L5.35156 5.35938C5.25847 5.45153 5.13296 5.50335 5.00195 5.50391H5.00098C4.93533 5.50426 4.87036 5.49159 4.80957 5.4668C4.77914 5.45437 4.74994 5.43894 4.72266 5.4209L4.64648 5.35938L0.647461 1.36035C0.553041 1.26583 0.5 1.13751 0.5 1.00391C0.500049 0.87028 0.552969 0.741953 0.647461 0.647461C0.741952 0.55297 0.870279 0.500049 1.00391 0.5Z" fill="#A098AE" stroke="#A098AE"/>
</svg>
