<svg width="19" height="22" viewBox="0 0 19 22" fill="none" xmlns="http://www.w3.org/2000/svg">
<path d="M7.75 10C7.75 9.53587 7.56563 9.09075 7.23744 8.76256C6.90925 8.43437 6.46413 8.25 6 8.25C5.53587 8.25 5.09075 8.43437 4.76256 8.76256C4.43437 9.09075 4.25 9.53587 4.25 10C4.25 10.4641 4.43437 10.9092 4.76256 11.2374C5.09075 11.5656 5.53587 11.75 6 11.75C6.46413 11.75 6.90925 11.5656 7.23744 11.2374C7.56563 10.9092 7.75 10.4641 7.75 10ZM14.25 10C14.25 9.53587 14.0656 9.09075 13.7374 8.76256C13.4092 8.43437 12.9641 8.25 12.5 8.25C12.0359 8.25 11.5908 8.43437 11.2626 8.76256C10.9344 9.09075 10.75 9.53587 10.75 10C10.75 10.4641 10.9344 10.9092 11.2626 11.2374C11.5908 11.5656 12.0359 11.75 12.5 11.75C12.9641 11.75 13.4092 11.5656 13.7374 11.2374C14.0656 10.9092 14.25 10.4641 14.25 10Z" stroke="white" stroke-width="1.5"/>
<path d="M8.25 14.75L8.543 14.38C8.876 13.96 9.043 13.75 9.25 13.75C9.457 13.75 9.624 13.96 9.957 14.38L10.25 14.75" stroke="white" stroke-width="1.5" stroke-linecap="round" stroke-linejoin="round"/>
<path d="M11.25 20.25V18.75M7.25 20.25V18.75M9.25 0.75C4.556 0.75 0.75 4.516 0.75 9.163C0.75 10.916 1.292 12.545 2.22 13.893C1.967 14.173 1.813 14.541 1.813 14.946C1.813 15.817 2.526 16.524 3.406 16.524V17.743C3.406 18.393 3.716 19.012 4.276 19.34C7.486 21.22 11.015 21.22 14.224 19.34C14.784 19.012 15.094 18.392 15.094 17.743V16.523C15.974 16.523 16.687 15.817 16.687 14.946C16.687 14.541 16.533 14.172 16.28 13.893C17.24 12.5027 17.7528 10.8525 17.75 9.163C17.75 4.516 13.944 0.75 9.25 0.75Z" stroke="white" stroke-width="1.5" stroke-linecap="round" stroke-linejoin="round"/>
</svg>
