<svg width="161" height="32" viewBox="0 0 161 32" fill="none" xmlns="http://www.w3.org/2000/svg">
<path d="M34.0161 2.60335C31.4168 1.38716 28.6374 0.503286 25.7316 0C25.3747 0.645195 24.9578 1.513 24.6704 2.20333C21.5815 1.73879 18.521 1.73879 15.4889 2.20333C15.2015 1.513 14.7751 0.645195 14.415 0C11.5061 0.503286 8.72353 1.39041 6.12415 2.60979C0.881166 10.5326 -0.54012 18.2587 0.170525 25.875C3.64794 28.4718 7.01798 30.0494 10.3311 31.0816C11.1492 29.9558 11.8788 28.759 12.5073 27.4976C11.3103 27.0428 10.1638 26.4815 9.08045 25.8299C9.36784 25.6169 9.64896 25.3943 9.92056 25.1653C16.528 28.2557 23.7071 28.2557 30.2355 25.1653C30.5103 25.3943 30.7914 25.6169 31.0756 25.8299C29.9891 26.4847 28.8395 27.046 27.6425 27.5009C28.271 28.759 28.9974 29.959 29.8186 31.0848C33.135 30.0525 36.5081 28.4751 39.9855 25.875C40.8194 17.0457 38.5611 9.39063 34.0161 2.60335ZM13.4075 21.191C11.424 21.191 9.79737 19.3393 9.79737 17.0844C9.79737 14.8295 11.3892 12.9746 13.4075 12.9746C15.4257 12.9746 17.0523 14.8263 17.0175 17.0844C17.0207 19.3393 15.4257 21.191 13.4075 21.191ZM26.7486 21.191C24.7652 21.191 23.1385 19.3393 23.1385 17.0844C23.1385 14.8295 24.7304 12.9746 26.7486 12.9746C28.7668 12.9746 30.3934 14.8263 30.3587 17.0844C30.3587 19.3393 28.7668 21.191 26.7486 21.191Z" fill="#23272A"/>
<path d="M53.9611 7.92998H62.5834C64.6619 7.92998 66.4179 8.26224 67.8584 8.92357C69.2951 9.58483 70.3724 10.5075 71.0863 11.6881C71.7997 12.8688 72.1597 14.2205 72.1597 15.7431C72.1597 17.2335 71.7871 18.5851 71.0418 19.7948C70.2964 21.0078 69.1625 21.9659 67.6372 22.6724C66.1118 23.3788 64.2226 23.7336 61.9647 23.7336H53.9611V7.92998ZM61.876 19.7174C63.2753 19.7174 64.3526 19.3594 65.1039 18.6464C65.8559 17.9303 66.2318 16.956 66.2318 15.7205C66.2318 14.5753 65.8966 13.6624 65.2272 12.9785C64.5579 12.2946 63.5439 11.9494 62.1887 11.9494H59.4914V19.7174H61.876Z" fill="#23272A"/>
<path d="M85.0684 23.7144C83.8745 23.3983 82.7972 22.9402 81.8405 22.3369V18.5885C82.5638 19.1594 83.5332 19.6304 84.7492 20.0014C85.9651 20.3691 87.1403 20.553 88.277 20.553C88.8077 20.553 89.209 20.482 89.4804 20.3401C89.7523 20.1982 89.8883 20.0272 89.8883 19.8304C89.8883 19.6046 89.8156 19.4175 89.667 19.2658C89.5183 19.1143 89.231 18.9884 88.8049 18.882L86.1517 18.2723C84.6325 17.911 83.5552 17.411 82.9145 16.769C82.2732 16.1303 81.9539 15.2915 81.9539 14.2528C81.9539 13.3786 82.2319 12.6205 82.7945 11.9721C83.3532 11.3237 84.1491 10.8237 85.1818 10.472C86.215 10.1172 87.4211 9.93978 88.8077 9.93978C90.0457 9.93978 91.1796 10.0753 92.2129 10.3462C93.2455 10.6172 94.0982 10.9624 94.7774 11.385V14.9303C94.0822 14.5077 93.2862 14.1754 92.3769 13.9237C91.4703 13.6754 90.5389 13.5528 89.5783 13.5528C88.1917 13.5528 87.5004 13.7947 87.5004 14.2754C87.5004 14.5012 87.6077 14.669 87.8224 14.7819C88.0371 14.8948 88.4317 15.0109 89.0037 15.1335L91.2143 15.5399C92.6582 15.7948 93.7349 16.2432 94.4422 16.8819C95.1501 17.5207 95.5035 18.4659 95.5035 19.7175C95.5035 21.0885 94.9195 22.1756 93.7475 22.9821C92.5756 23.7886 90.9143 24.1918 88.7604 24.1918C87.4938 24.1886 86.2624 24.0305 85.0684 23.7144Z" fill="#23272A"/>
<path d="M100.722 23.24C99.4562 22.6077 98.4989 21.7497 97.8609 20.6657C97.2229 19.5818 96.9009 18.3625 96.9009 17.0075C96.9009 15.6527 97.2323 14.4398 97.8956 13.372C98.5589 12.3042 99.5316 11.4655 100.814 10.8558C102.096 10.2461 103.628 9.94283 105.413 9.94283C107.623 9.94283 109.459 10.4171 110.918 11.3654V15.4979C110.403 15.1365 109.803 14.843 109.117 14.6172C108.432 14.3914 107.699 14.2784 106.916 14.2784C105.545 14.2784 104.475 14.5333 103.701 15.0462C102.927 15.5591 102.539 16.2269 102.539 17.0559C102.539 17.8689 102.914 18.5334 103.666 19.056C104.418 19.5754 105.507 19.8367 106.938 19.8367C107.674 19.8367 108.401 19.727 109.117 19.5109C109.831 19.2915 110.447 19.0238 110.962 18.7076V22.7045C109.342 23.6981 107.463 24.1949 105.324 24.1949C103.524 24.1884 101.989 23.8723 100.722 23.24Z" fill="#23272A"/>
<path d="M116.432 23.2403C115.156 22.608 114.184 21.7434 113.514 20.6434C112.844 19.5434 112.506 18.3175 112.506 16.9626C112.506 15.6078 112.841 14.398 113.514 13.3368C114.186 12.2754 115.153 11.4431 116.423 10.8399C117.689 10.2366 119.202 9.93662 120.955 9.93662C122.708 9.93662 124.221 10.2366 125.487 10.8399C126.754 11.4431 127.721 12.269 128.384 13.3238C129.047 14.3787 129.378 15.5884 129.378 16.9595C129.378 18.3143 129.047 19.5402 128.384 20.6402C127.721 21.7402 126.751 22.6048 125.475 23.2371C124.199 23.8693 122.692 24.1855 120.952 24.1855C119.211 24.1855 117.705 23.8725 116.432 23.2403ZM123.15 19.2337C123.687 18.6853 123.959 17.9595 123.959 17.0562C123.959 16.153 123.69 15.4336 123.15 14.9013C122.613 14.3658 121.88 14.098 120.952 14.098C120.007 14.098 119.268 14.3658 118.728 14.9013C118.191 15.4368 117.923 16.153 117.923 17.0562C117.923 17.9595 118.191 18.6853 118.728 19.2337C119.265 19.7821 120.007 20.0595 120.952 20.0595C121.88 20.0563 122.613 19.7821 123.15 19.2337Z" fill="#23272A"/>
<path d="M142.663 10.7753V15.6529C142.101 15.2754 141.374 15.0883 140.474 15.0883C139.295 15.0883 138.386 15.4529 137.754 16.1819C137.12 16.911 136.804 18.0465 136.804 19.582V23.737H131.387V10.527H136.693V14.7271C136.987 13.1915 137.464 12.0593 138.121 11.3269C138.775 10.5979 139.621 10.2334 140.651 10.2334C141.431 10.2334 142.101 10.4141 142.663 10.7753Z" fill="#23272A"/>
<path d="M160.66 7.47832V23.7369H155.243V20.7788C154.785 21.8917 154.09 22.7401 153.155 23.3207C152.22 23.8982 151.064 24.1885 149.693 24.1885C148.468 24.1885 147.401 23.8853 146.488 23.2756C145.575 22.6659 144.871 21.8304 144.375 20.7691C143.882 19.7077 143.632 18.5077 143.632 17.1658C143.617 15.7818 143.879 14.5398 144.419 13.4398C144.956 12.3398 145.717 11.4817 146.696 10.8655C147.675 10.2494 148.793 9.9397 150.047 9.9397C152.628 9.9397 154.359 11.0849 155.243 13.372V7.47832H160.66ZM154.435 19.1432C154.987 18.5948 155.262 17.8819 155.262 17.0109C155.262 16.1689 154.993 15.4818 154.457 14.956C153.919 14.4302 153.183 14.1656 152.258 14.1656C151.345 14.1656 150.616 14.4334 150.069 14.9689C149.523 15.5044 149.251 16.1979 149.251 17.0561C149.251 17.9142 149.523 18.6142 150.069 19.1561C150.616 19.698 151.336 19.969 152.236 19.969C153.149 19.9658 153.881 19.6916 154.435 19.1432Z" fill="#23272A"/>
<path d="M76.7243 11.9331C78.2155 11.9331 79.4249 10.8239 79.4249 9.45561C79.4249 8.08733 78.2155 6.97815 76.7243 6.97815C75.2326 6.97815 74.0238 8.08733 74.0238 9.45561C74.0238 10.8239 75.2326 11.9331 76.7243 11.9331Z" fill="#23272A"/>
<path d="M74.0214 13.6398C75.6761 14.3688 77.7293 14.4011 79.422 13.6398V23.8079H74.0214V13.6398Z" fill="#23272A"/>
</svg>
