<svg width="128" height="46" viewBox="0 0 128 46" fill="none" xmlns="http://www.w3.org/2000/svg">
<g style="mix-blend-mode:luminosity" clip-path="url(#clip0_65_4932)">
<path fill-rule="evenodd" clip-rule="evenodd" d="M16.4184 4.70972C7.34725 4.70972 0 12.057 0 21.1282C0 28.3933 4.69978 34.5297 11.2261 36.7051C12.047 36.8488 12.3549 36.3563 12.3549 35.9253C12.3549 35.5353 12.3344 34.2424 12.3344 32.8673C8.20922 33.6267 7.14202 31.8617 6.81365 30.9382C6.62894 30.4661 5.82854 29.009 5.13076 28.6191C4.55612 28.3112 3.73519 27.5519 5.11024 27.5313C6.40319 27.5108 7.32673 28.7217 7.63457 29.2142C9.11223 31.6975 11.4724 30.9997 12.4164 30.5688C12.5601 29.5016 12.9911 28.7832 13.4631 28.3728C9.81002 27.9623 5.99273 26.5462 5.99273 20.2662C5.99273 18.4807 6.62894 17.003 7.67562 15.8537C7.51143 15.4433 6.93679 13.7604 7.8398 11.5028C7.8398 11.5028 9.21485 11.0719 12.3549 13.1857C13.6683 12.8163 15.0639 12.6316 16.4595 12.6316C17.8551 12.6316 19.2506 12.8163 20.5641 13.1857C23.7041 11.0513 25.0792 11.5028 25.0792 11.5028C25.9822 13.7604 25.4075 15.4433 25.2433 15.8537C26.29 17.003 26.9262 18.4602 26.9262 20.2662C26.9262 26.5668 23.0884 27.9623 19.4353 28.3728C20.0305 28.8859 20.5436 29.871 20.5436 31.4102C20.5436 33.6062 20.523 35.3711 20.523 35.9253C20.523 36.3563 20.8309 36.8693 21.6518 36.7051C24.9112 35.6048 27.7434 33.5101 29.7499 30.7157C31.7563 27.9214 32.836 24.5682 32.8369 21.1282C32.8369 12.057 25.4896 4.70972 16.4184 4.70972Z" fill="#24292E"/>
<path d="M76.54 29.0529H76.5017C76.5189 29.0529 76.5304 29.0721 76.5477 29.074H76.5592L76.54 29.0548V29.0529ZM76.5477 29.074C76.3695 29.0759 75.9213 29.1698 75.4482 29.1698C73.9541 29.1698 73.4369 28.4802 73.4369 27.5799V21.5825H76.4825C76.6549 21.5825 76.789 21.4293 76.789 21.2186V17.9623C76.789 17.7899 76.6358 17.6366 76.4825 17.6366H73.4369V13.595C73.4369 13.4417 73.3412 13.3459 73.1688 13.3459H69.0313C68.8589 13.3459 68.7631 13.4417 68.7631 13.595V17.7516C68.7631 17.7516 66.6753 18.2687 66.5412 18.2879C66.3879 18.3262 66.2922 18.4603 66.2922 18.6135V21.2186C66.2922 21.4293 66.4454 21.5825 66.6178 21.5825H68.744V27.8653C68.744 32.5391 72.0003 33.018 74.2223 33.018C75.2375 33.018 76.4634 32.6923 76.6549 32.5966C76.7699 32.5583 76.8273 32.4242 76.8273 32.2901V29.4169C76.83 29.3354 76.8031 29.2557 76.7518 29.1923C76.7004 29.129 76.628 29.0863 76.5477 29.0721V29.074ZM121.937 24.858C121.937 21.391 120.539 20.9313 119.064 21.0845C117.914 21.1611 116.995 21.7358 116.995 21.7358V28.4783C116.995 28.4783 117.934 29.1295 119.332 29.1678C121.305 29.2253 121.937 28.5166 121.937 24.858ZM126.592 24.5515C126.592 31.1216 124.465 32.9988 120.749 32.9988C117.608 32.9988 115.922 31.409 115.922 31.409C115.922 31.409 115.846 32.2901 115.75 32.405C115.693 32.5199 115.597 32.5583 115.482 32.5583H112.647C112.455 32.5583 112.283 32.405 112.283 32.2326L112.321 10.9516C112.321 10.7792 112.474 10.626 112.647 10.626H116.727C116.899 10.626 117.053 10.7792 117.053 10.9516V18.173C117.053 18.173 118.623 17.1578 120.922 17.1578L120.903 17.1195C123.201 17.1195 126.592 17.9814 126.592 24.5515ZM109.889 17.6366H105.866C105.655 17.6366 105.54 17.7899 105.54 18.0006V28.4208C105.54 28.4208 104.487 29.1678 103.05 29.1678C101.614 29.1678 101.192 28.5166 101.192 27.08V17.9814C101.192 17.809 101.039 17.6558 100.867 17.6558H96.7675C96.5951 17.6558 96.4419 17.809 96.4419 17.9814V27.7695C96.4419 31.9836 98.7979 33.0371 102.035 33.0371C104.698 33.0371 106.862 31.5622 106.862 31.5622C106.862 31.5622 106.958 32.3092 107.015 32.4242C107.054 32.5199 107.188 32.5966 107.322 32.5966H109.889C110.099 32.5966 110.214 32.4433 110.214 32.2709L110.253 17.9623C110.253 17.7899 110.099 17.6366 109.889 17.6366ZM64.4916 17.6175H60.4116C60.2392 17.6175 60.086 17.7899 60.086 18.0006V32.0602C60.086 32.4433 60.335 32.5774 60.6606 32.5774H64.3384C64.7215 32.5774 64.8172 32.405 64.8172 32.0602V17.9431C64.8172 17.7707 64.664 17.6175 64.4916 17.6175ZM62.4804 11.1431C61.0054 11.1431 59.837 12.3116 59.837 13.7865C59.837 15.2614 61.0054 16.4299 62.4804 16.4299C63.917 16.4299 65.0854 15.2614 65.0854 13.7865C65.0854 12.3116 63.917 11.1431 62.4804 11.1431ZM94.0667 10.6643H90.025C89.8526 10.6643 89.6994 10.8175 89.6994 10.9899V18.8242H83.3591V10.9899C83.3591 10.8175 83.2059 10.6643 83.0335 10.6643H78.9535C78.7811 10.6643 78.6279 10.8175 78.6279 10.9899V32.2709C78.6279 32.4433 78.8003 32.5966 78.9535 32.5966H83.0335C83.2059 32.5966 83.3591 32.4433 83.3591 32.2709V23.1724H89.6994L89.6611 32.2709C89.6611 32.4433 89.8143 32.5966 89.9867 32.5966H94.0667C94.2391 32.5966 94.3923 32.4433 94.3923 32.2709V10.9899C94.3923 10.8175 94.2391 10.6643 94.0667 10.6643ZM57.9215 20.0885V31.0833C57.9215 31.16 57.9024 31.294 57.8066 31.3323C57.8066 31.3323 55.4122 33.0371 51.4663 33.0371C46.6968 33.0371 41.0461 31.543 41.0461 21.6975C41.0461 11.8519 45.988 9.82146 50.8151 9.84061C54.9908 9.84061 56.6764 10.7792 56.9446 10.9516C57.0212 11.0474 57.0595 11.124 57.0595 11.2198L56.255 14.6293C56.255 14.8017 56.0826 15.0124 55.8719 14.955C55.1824 14.7443 54.148 14.3228 51.7153 14.3228C48.8996 14.3228 45.8731 15.1273 45.8731 21.4676C45.8731 27.8079 48.7463 28.5549 50.8151 28.5549C52.5773 28.5549 53.2094 28.3442 53.2094 28.3442V23.9386H50.3937C50.1829 23.9386 50.0297 23.7853 50.0297 23.6129V20.0885C50.0297 19.9161 50.1829 19.7628 50.3937 19.7628H57.5576C57.7683 19.7628 57.9215 19.9161 57.9215 20.0885Z" fill="#24292E"/>
</g>
<defs>
<clipPath id="clip0_65_4932">
<rect width="127.165" height="45.2143" fill="white"/>
</clipPath>
</defs>
</svg>
