<svg width="21" height="20" viewBox="0 0 21 20" fill="none" xmlns="http://www.w3.org/2000/svg">
<path d="M0.750244 13.6956C0.0328052 14.1098 -0.213008 15.0272 0.201206 15.7446C0.61542 16.4621 1.53281 16.7079 2.25024 16.2937L1.50024 14.9946L0.750244 13.6956ZM20.2696 5.38286C20.4841 4.58266 20.0092 3.76015 19.209 3.54574L6.16898 0.051683C5.36878 -0.16273 4.54628 0.312144 4.33186 1.11234C4.11745 1.91254 4.59233 2.73505 5.39253 2.94946L16.9836 6.05529L13.8778 17.6464C13.6634 18.4466 14.1383 19.2691 14.9385 19.4835C15.7387 19.6979 16.5612 19.2231 16.7756 18.4229L20.2696 5.38286ZM1.50024 14.9946L2.25024 16.2937L19.5708 6.29367L18.8208 4.99463L18.0708 3.69559L0.750244 13.6956L1.50024 14.9946Z" fill="#ECECEC"/>
</svg>
