<svg width="32" height="32" viewBox="0 0 32 32" fill="none" xmlns="http://www.w3.org/2000/svg">
<path fill-rule="evenodd" clip-rule="evenodd" d="M21.7747 22.2009L26.3371 16.8775C26.555 16.629 26.6665 16.3152 26.6666 15.9998C26.6667 15.784 26.6147 15.5674 26.5091 15.3704C26.4621 15.2826 26.4047 15.1992 26.3371 15.1221L21.7747 9.7987C21.2955 9.23957 20.4538 9.17478 19.8947 9.65398C19.3356 10.1332 19.2708 10.9749 19.75 11.534L22.4345 14.6664L12.1083 14.6664C11.3719 14.6664 10.775 15.2633 10.775 15.9997C10.775 16.7361 11.3719 17.333 12.1083 17.333L22.4347 17.333L19.75 20.4655C19.2708 21.0247 19.3356 21.8664 19.8947 22.3456C20.4538 22.8248 21.2955 22.76 21.7747 22.2009ZM13.3333 7.99967C14.0697 7.99967 14.6666 8.59663 14.6666 9.33301L14.6666 11.333C14.6666 12.0694 15.2636 12.6663 16 12.6663C16.7363 12.6663 17.3333 12.0694 17.3333 11.333L17.3333 9.33301C17.3333 7.12387 15.5424 5.33301 13.3333 5.33301L9.33329 5.33301C7.12415 5.33301 5.33329 7.12387 5.33329 9.33301L5.33329 22.6663C5.33329 24.8755 7.12415 26.6663 9.33329 26.6663L13.3333 26.6663C15.5424 26.6663 17.3333 24.8755 17.3333 22.6663L17.3333 20.6663C17.3333 19.93 16.7363 19.333 16 19.333C15.2636 19.333 14.6666 19.93 14.6666 20.6663L14.6666 22.6663C14.6666 23.4027 14.0697 23.9997 13.3333 23.9997L9.33329 23.9997C8.59691 23.9997 7.99996 23.4027 7.99996 22.6663L7.99996 9.33301C7.99996 8.59663 8.59691 7.99967 9.33329 7.99967L13.3333 7.99967Z" fill="#737791"/>
</svg>
