<svg width="25" height="24" viewBox="0 0 25 24" fill="none" xmlns="http://www.w3.org/2000/svg">
<path d="M21.7558 18.5534C21.1104 17.9802 20.5455 17.3232 20.0761 16.6C19.5636 15.6017 19.2564 14.5115 19.1726 13.3934V10.1C19.1771 8.34376 18.5376 6.64633 17.3743 5.32666C16.211 4.007 14.6041 3.15592 12.8553 2.93335V2.07335C12.8553 1.83731 12.7612 1.61093 12.5937 1.44402C12.4261 1.27712 12.1989 1.18335 11.9619 1.18335C11.725 1.18335 11.4978 1.27712 11.3302 1.44402C11.1627 1.61093 11.0685 1.83731 11.0685 2.07335V2.94668C9.33547 3.1853 7.74792 4.04152 6.59994 5.35675C5.45195 6.67199 4.82132 8.35711 4.82485 10.1V13.3934C4.74104 14.5115 4.43389 15.6017 3.92142 16.6C3.46026 17.3216 2.90436 17.9785 2.26848 18.5534C2.1971 18.6158 2.13989 18.6927 2.10066 18.7789C2.06143 18.8651 2.04107 18.9587 2.04095 19.0534V19.96C2.04095 20.1368 2.11146 20.3064 2.23696 20.4314C2.36246 20.5564 2.53268 20.6267 2.71016 20.6267H21.3141C21.4916 20.6267 21.6618 20.5564 21.7873 20.4314C21.9128 20.3064 21.9833 20.1368 21.9833 19.96V19.0534C21.9832 18.9587 21.9628 18.8651 21.9236 18.7789C21.8844 18.6927 21.8271 18.6158 21.7558 18.5534ZM3.4329 19.2934C4.05554 18.6942 4.60374 18.0227 5.06577 17.2934C5.71129 16.0877 6.08793 14.7574 6.16995 13.3934V10.1C6.14341 9.31871 6.27497 8.54007 6.55679 7.81046C6.8386 7.08086 7.26492 6.41521 7.81034 5.85315C8.35577 5.2911 9.00915 4.84413 9.73159 4.53887C10.454 4.2336 11.2307 4.07629 12.0155 4.07629C12.8002 4.07629 13.5769 4.2336 14.2993 4.53887C15.0218 4.84413 15.6752 5.2911 16.2206 5.85315C16.766 6.41521 17.1923 7.08086 17.4741 7.81046C17.756 8.54007 17.8875 9.31871 17.861 10.1V13.3934C17.943 14.7574 18.3196 16.0877 18.9652 17.2934C19.4272 18.0227 19.9754 18.6942 20.598 19.2934H3.4329Z" fill="#FFA412"/>
<path d="M12.0452 22.8533C12.4668 22.8436 12.8713 22.6857 13.1873 22.4075C13.5033 22.1294 13.7103 21.7488 13.7718 21.3333H10.2518C10.315 21.7601 10.5317 22.1496 10.8616 22.4292C11.1915 22.7088 11.6121 22.8595 12.0452 22.8533Z" fill="#FFA412"/>
</svg>
