<svg width="138" height="46" viewBox="0 0 138 46" fill="none" xmlns="http://www.w3.org/2000/svg">
<g style="mix-blend-mode:luminosity" clip-path="url(#clip0_65_4930)">
<path d="M47.7584 32.7568V19.0465H48.0339L59.2941 32.7568H62.8376V12.623H58.9004V26.2988H58.6248L47.3646 12.623H43.8212V32.7568H47.7584ZM73.9796 33.0677C79.1766 33.0677 82.3657 30.0977 82.3657 25.1246C82.3657 20.1862 79.1766 17.1816 73.9796 17.1816C68.822 17.1816 65.5936 20.1862 65.5936 25.1246C65.6329 30.0977 68.7826 33.0677 73.9796 33.0677ZM73.9796 30.1667C71.2236 30.1667 69.6488 28.3364 69.6488 25.1246C69.6488 21.9474 71.2236 20.0826 73.9796 20.0826C76.7356 20.0826 78.3105 21.9474 78.3105 25.1246C78.3105 28.3364 76.7356 30.1667 73.9796 30.1667ZM85.9485 13.7627V17.596H83.1925V20.3588H85.9485V28.6817C85.9485 31.6517 87.5234 32.8259 91.5392 32.8259C92.2873 32.8259 93.0354 32.7568 93.6259 32.6532V29.9595C93.1535 29.9941 92.8385 30.0286 92.2873 30.0286C90.6337 30.0286 89.8857 29.3724 89.8857 27.8529V20.3588H93.6259V17.596H89.8857V13.7627H85.9485ZM95.9882 32.7568H99.9253V17.4924H95.9882V32.7568ZM97.9568 14.9714C99.256 14.9714 100.319 14.0389 100.319 12.8993C100.319 11.7251 99.256 10.7927 97.9568 10.7927C96.6575 10.7927 95.5945 11.7251 95.5945 12.8993C95.5945 14.0389 96.6575 14.9714 97.9568 14.9714ZM110.713 33.0677C115.91 33.0677 119.099 30.0977 119.099 25.1246C119.099 20.1862 115.91 17.1816 110.713 17.1816C105.555 17.1816 102.327 20.1862 102.327 25.1246C102.327 30.0977 105.477 33.0677 110.713 33.0677ZM110.713 30.1667C107.957 30.1667 106.382 28.3364 106.382 25.1246C106.382 21.9474 107.957 20.0826 110.713 20.0826C113.43 20.0826 115.044 21.9474 115.044 25.1246C115.005 28.3364 113.43 30.1667 110.713 30.1667ZM121.422 32.7568H125.359V23.8814C125.359 21.6366 126.855 20.2207 129.178 20.2207C131.58 20.2207 132.682 21.3949 132.682 23.7087V32.7568H136.619V22.8799C136.619 19.2192 134.493 17.1816 130.635 17.1816C128.036 17.1816 126.304 18.2177 125.477 19.9444H125.202V17.4924H121.383C121.422 17.4924 121.422 32.7568 121.422 32.7568Z" fill="black"/>
<path fill-rule="evenodd" clip-rule="evenodd" d="M6.07087 11.3344C7.21678 12.1537 7.63125 12.089 9.77678 11.9596L29.9886 10.8816C30.4275 10.8816 30.0618 10.4935 29.9155 10.4504L26.5509 8.31582C25.917 7.8846 25.0393 7.36713 23.4058 7.4965L3.8522 8.7686C3.14515 8.83328 2.99886 9.1567 3.29144 9.39387L6.07087 11.3344ZM7.28992 15.4956V34.2969C7.28992 35.3102 7.85068 35.6768 9.14288 35.6121L31.354 34.4694C32.6462 34.4047 32.7924 33.7147 32.7924 32.8954V14.2235C32.7924 13.4042 32.4267 12.9514 31.6465 13.0161L8.43583 14.2235C7.58249 14.2882 7.28992 14.6763 7.28992 15.4956ZM29.2084 16.509C29.3547 17.0696 29.2084 17.6518 28.5745 17.7164L27.5018 17.9105V31.7958C26.5753 32.227 25.722 32.4858 24.9905 32.4858C23.8446 32.4858 23.552 32.1623 22.6987 31.2136L15.7014 21.4896V30.8902L17.92 31.3215C17.92 31.3215 17.92 32.4642 16.1402 32.4642L11.2153 32.7229C11.069 32.4642 11.2153 31.8389 11.7029 31.7096L12.9951 31.3861V18.967L11.2153 18.8376C11.069 18.277 11.4347 17.4577 12.4343 17.393L17.725 17.0696L25.0149 26.9014V18.2123L23.162 18.0183C23.0157 17.3283 23.6008 16.8109 24.3079 16.7462L29.2084 16.509ZM2.21867 7.04372L22.5768 5.72849C25.0637 5.53444 25.722 5.66381 27.2823 6.67718L33.7677 10.7091C34.8405 11.399 35.2062 11.5931 35.2062 12.3477V34.4909C35.2062 35.8708 34.6454 36.6901 32.6462 36.8195L9.02097 38.0916C7.50935 38.1563 6.8023 37.9623 6.02211 37.0783L1.21905 31.5802C0.365715 30.5668 0 29.8122 0 28.9282V9.24294C0 8.10021 0.585144 7.17308 2.21867 7.04372Z" fill="black"/>
</g>
<defs>
<clipPath id="clip0_65_4930">
<rect width="137.103" height="45.2143" fill="white"/>
</clipPath>
</defs>
</svg>
