<svg width="32" height="32" viewBox="0 0 32 32" fill="none" xmlns="http://www.w3.org/2000/svg">
<path d="M25.3333 8.00016H22.6667C22.6667 4.26683 19.7333 1.3335 16 1.3335C12.2667 1.3335 9.33333 4.26683 9.33333 8.00016H6.66667C5.2 8.00016 4 9.20016 4 10.6668V26.6668C4 28.1335 5.2 29.3335 6.66667 29.3335H25.3333C26.8 29.3335 28 28.1335 28 26.6668V10.6668C28 9.20016 26.8 8.00016 25.3333 8.00016ZM16 4.00016C18.2667 4.00016 20 5.7335 20 8.00016H12C12 5.7335 13.7333 4.00016 16 4.00016ZM25.3333 26.6668H6.66667V10.6668H25.3333V26.6668ZM16 16.0002C13.7333 16.0002 12 14.2668 12 12.0002H9.33333C9.33333 15.7335 12.2667 18.6668 16 18.6668C19.7333 18.6668 22.6667 15.7335 22.6667 12.0002H20C20 14.2668 18.2667 16.0002 16 16.0002Z" fill="#737791"/>
</svg>
