<svg width="145" height="46" viewBox="0 0 145 46" fill="none" xmlns="http://www.w3.org/2000/svg">
<g style="mix-blend-mode:luminosity" clip-path="url(#clip0_65_4931)">
<path d="M123.427 21.6053V32.9579H127.055V25.3895H140.326V32.9579H143.955V21.6053H123.427ZM126.641 17.9248H140.637C142.607 17.5619 144.006 15.7994 144.421 14.1406H122.857C123.271 15.7994 124.723 17.5101 126.641 17.9248ZM112.385 32.9579C114.2 32.1803 115.184 30.8325 115.599 29.2774H99.2701V14.1925H95.5896V32.9579H112.385ZM68.3746 17.873H81.3341C83.304 17.3028 84.911 15.7994 85.3257 14.1925H64.7977V25.2858H81.5933V29.1737H68.4264C66.3529 29.7439 64.5904 31.1436 63.7091 32.9579H85.222V21.6053H68.4264L68.3746 17.873ZM36.4423 17.9248H50.4386C52.4084 17.5619 53.8599 15.7994 54.2228 14.1406H32.6062C33.0209 15.7994 34.4724 17.5101 36.4423 17.9248ZM36.4423 25.3377H50.4386C52.4084 24.9748 53.8599 23.2123 54.2228 21.5535H32.6062C33.0209 23.2123 34.4724 24.923 36.4423 25.3377ZM36.4423 32.9579H50.4386C52.4084 32.595 53.8599 30.8325 54.2228 29.1737H32.6062C33.0209 30.8325 34.4724 32.595 36.4423 32.9579Z" fill="#5E5E5E"/>
<path d="M0 14.1925C0.414706 15.8513 1.86618 17.5101 3.78419 17.9248H9.69374L10.0048 18.0285V32.9061H13.6853V18.0285L13.9963 17.9248H19.9059C21.8757 17.4064 23.2753 15.8513 23.6901 14.1925V14.1406L0 14.1925Z" fill="#5E5E5E"/>
</g>
<defs>
<clipPath id="clip0_65_4931">
<rect width="144.121" height="45.2143" fill="white"/>
</clipPath>
</defs>
</svg>
